<svg xmlns="http://www.w3.org/2000/svg" xmlns:xlink="http://www.w3.org/1999/xlink" width="48" height="48">
    <defs>
        <linearGradient id="a" x1="24" x2="24" y1="4" y2="44" gradientUnits="userSpaceOnUse">
            <stop offset="0" stop-color="#dd001b"/>
            <stop offset="1" stop-color="#c8001a"/>
        </linearGradient>
        <linearGradient id="b" x1="18" x2="38" y1="18" y2="38" gradientUnits="userSpaceOnUse">
            <stop stop-color="#292c2f" stop-opacity="0.2"/>
            <stop offset="1" stop-color="#292c2f" stop-opacity="0"/>
        </linearGradient>
    </defs>
    <circle cx="24" cy="24" r="20" fill="url(#a)"/>
    <path fill="#a60016" d="M4.012 23.5c-.004.167-.012.332-.012.5 0 11.08 8.92 20 20 20s20-8.92 20-20c0-.168-.008-.333-.012-.5A19.953 19.953 0 0 1 24 43 19.95 19.95 0 0 1 4.012 23.5"/>
    <path fill="url(#b)" d="M32.266 10.46l-5.8.1v6.5l-5-5-10 9.5 3.8 12.9 9.483 9.482 16.183-4.925 2.97-16.668z"/>
    <path fill="#fff" d="M26.182 24.087a2.268 2.268 0 0 1-2.268 2.26c-1.387 0-2.15-1.26-2.276-2.43-.235-2.23.933-3.444 1.955-4.069a5.855 5.855 0 0 1 1.347-.594s1.101 3.496 1.188 4.04c.095.598.054.792.054.792m5.415-7.014c-1.218-.79-2.712-1.223-4.25-1.3l-.344-1.26.01.015-.037-.11-.1-.373c-.235-1.074.191-1.586.41-1.77.037-.027.075-.058.117-.084 1.003-.666 2.431.401 2.512.464.634.61 1.794.761 2.42.137.632-.63.483-1.81-.15-2.44-.985-.983-4.006-2.558-6.578-.848-2.312 1.536-2.358 3.7-1.978 4.95l.461 1.69a8.929 8.929 0 0 0-2.19.953c-2.53 1.545-3.8 4.155-3.484 7.16.328 3.082 2.639 5.32 5.498 5.32 3.035 0 5.506-2.463 5.506-5.49-.04-.722-.033-.715-.128-1.36-.096-.63-1.03-3.594-1.03-3.594a4.923 4.923 0 0 1 1.572.647c5.22 3.384 3.047 8.77 2.95 9.005-1.436 3.442-4.574 5.495-8.603 5.636-2.625.092-5.14-.886-7.084-2.756a10.57 10.57 0 0 1-3.222-7.577c0-4.284 2.701-8.174 6.722-9.679.838-.313 1.512-1.205 1.05-2.242-.364-.815-1.35-1.094-2.188-.78-5.278 1.972-8.823 7.078-8.823 12.7a13.812 13.812 0 0 0 4.212 9.902c2.47 2.375 5.646 3.67 8.99 3.668.152 0 .304 0 .457-.007 5.271-.185 9.563-3.034 11.472-7.607 1.195-2.777 1.86-9.062-4.17-12.97"/>
</svg>