<svg xmlns="http://www.w3.org/2000/svg" width="48" height="48">
    <!--breeze_dark: #232627; breeze: #eff0f1 -->
    <path fill="#232627" d="M27.464 24.809a3.015 3.015 0 0 1-3.015 3.006c-1.844 0-2.86-1.676-3.027-3.231-.312-2.965 1.241-4.58 2.6-5.41a7.785 7.785 0 0 1 1.79-.79s1.465 4.648 1.58 5.371c.126.795.072 1.053.072 1.053m7.2-9.325c-1.62-1.05-3.606-1.627-5.652-1.73l-.457-1.673.015.019-.05-.147-.134-.495c-.312-1.428.255-2.109.545-2.354.05-.036.1-.076.156-.111 1.334-.886 3.233.533 3.34.617.843.811 2.385 1.012 3.218.182.84-.838.642-2.406-.199-3.245-1.31-1.306-5.327-3.4-8.747-1.126-3.074 2.042-3.135 4.918-2.63 6.58l.614 2.248a11.871 11.871 0 0 0-2.912 1.266c-3.365 2.055-5.053 5.525-4.632 9.519.436 4.099 3.508 7.075 7.31 7.075 4.035 0 7.32-3.275 7.32-7.3-.053-.96-.044-.95-.17-1.81-.128-.836-1.37-4.776-1.37-4.776a6.545 6.545 0 0 1 2.09.86c6.94 4.499 4.052 11.66 3.923 11.972-1.91 4.576-6.082 7.306-11.438 7.493-3.49.123-6.835-1.177-9.419-3.664a14.054 14.054 0 0 1-4.284-10.074c0-5.695 3.592-10.867 8.938-12.868 1.113-.416 2.01-1.602 1.396-2.981-.484-1.084-1.795-1.455-2.91-1.037-7.017 2.622-11.73 9.41-11.73 16.886a18.363 18.363 0 0 0 5.6 13.164c3.283 3.158 7.506 4.88 11.953 4.877.202 0 .404-.002.607-.01 7.008-.246 12.714-4.034 15.252-10.113 1.589-3.693 2.473-12.048-5.543-17.244"/>
</svg>
